<svg id="图层_1" data-name="图层 1" xmlns="http://www.w3.org/2000/svg" xmlns:xlink="http://www.w3.org/1999/xlink" viewBox="0 0 232.24 230.86"><defs><style>.cls-1{fill:#f7931e;stroke:url(#金粉);}.cls-1,.cls-2{stroke-miterlimit:10;}.cls-2{fill:#fbb03b;stroke:url(#金粉-2);}.cls-3{fill:#fff;}</style><linearGradient id="金粉" x1="28.28" y1="100.58" x2="202.48" y2="100.58" gradientUnits="userSpaceOnUse"><stop offset="0" stop-color="#ff7300"/><stop offset="0.18" stop-color="#f97c01"/><stop offset="0.47" stop-color="#ea9602"/><stop offset="0.55" stop-color="#e59e03"/><stop offset="0.87" stop-color="#e5c500"/><stop offset="0.99" stop-color="#bf6f00"/></linearGradient><linearGradient id="金粉-2" x1="0" y1="181.7" x2="232.24" y2="181.7" xlink:href="#金粉"/></defs><title>developer</title><polygon class="cls-1" points="28.78 50.58 28.78 150.58 115.38 200.58 201.98 150.58 201.98 50.58 115.38 0.58 28.78 50.58"/><polygon class="cls-2" points="231.74 143.4 124.78 205.15 150.5 220 150.5 230 116.12 210.15 81.74 230 81.74 220 107.46 205.15 0.5 143.4 0.5 133.4 116.12 200.15 231.74 133.4 231.74 143.4"/><path class="cls-3" d="M203.47,203.42v-1.84l24-12.56v2.35L206,202.45v.15l21.4,11V216Z" transform="translate(-134.62 -99.42)"/><path class="cls-3" d="M243,218l11-34.78h2.45l-11,34.78Z" transform="translate(-134.62 -99.42)"/><path class="cls-3" d="M296.53,201.58v1.84l-24,12.57v-2.35l21.45-11v-.15l-21.45-11.08V189Z" transform="translate(-134.62 -99.42)"/></svg>